<svg xmlns="http://www.w3.org/2000/svg" width="37" height="55"><path fill="#86adef" d="M37 10.773v36.28c0 .594-.491 1.074-1.098 1.074H29.35v5.799c0 .39-.217.75-.566.94a1.119 1.119 0 01-1.115-.03l-4.181-2.567-4.18 2.567a1.12 1.12 0 01-1.116.03 1.07 1.07 0 01-.566-.94v-5.799H1.098C.49 48.127 0 47.647 0 47.053V1.074C0 .481.491 0 1.098 0H25.99l.015.002.036.001a1.142 1.142 0 01.434.119l.005.002.004.002a1.043 1.043 0 01.14.088l.01.008c.038.029.075.059.11.093l9.934 9.72c.035.035.065.071.095.109l.006.008.015.02c.028.039.054.078.076.119l.002.002.002.004a1.13 1.13 0 01.104.288c.01.046.014.092.018.138v.025l.001.01zm-9.933-1.052h6.185l-6.185-6.053zM16.877 32.5c.003.138.129.473.206.679l.001.002c.163.435.347.927.347 1.473 0 .547-.184 1.04-.348 1.476-.077.206-.202.54-.205.677.086.104.383.289.565.401.392.242.835.516 1.156.945.325.433.457.934.573 1.375v.002c.052.193.134.504.204.621.04.008.12.02.272.02.123 0 .26-.007.404-.014h.008a9.2 9.2 0 01.509-.017c.395 0 .714.044 1.004.138.503.164.906.48 1.262.76l.005.005c.194.153.518.408.647.43.13-.022.453-.277.647-.43l.002-.002c.357-.28.76-.598 1.266-.763.29-.094.608-.138 1.003-.138.177 0 .346.009.51.016h.007c.145.008.282.015.405.015.152 0 .232-.012.271-.02.07-.118.153-.43.204-.623.116-.44.249-.942.573-1.375.322-.429.765-.703 1.156-.945l.01-.006c.183-.114.471-.293.556-.395-.003-.137-.129-.472-.206-.677v-.002c-.164-.435-.348-.928-.348-1.474 0-.547.185-1.04.348-1.476l.001-.002c.077-.206.202-.539.205-.675-.085-.102-.373-.281-.556-.395l-.01-.006c-.392-.242-.835-.516-1.156-.945-.324-.433-.457-.934-.573-1.375-.05-.193-.133-.505-.204-.623a1.369 1.369 0 00-.271-.02c-.123 0-.26.007-.405.014h-.007a9.205 9.205 0 01-.51.017c-.395 0-.714-.044-1.003-.138-.506-.165-.91-.483-1.268-.764l-.004-.004c-.198-.155-.523-.412-.648-.428-.115.016-.443.274-.64.43l-.003.002c-.356.28-.76.6-1.266.764-.29.094-.609.138-1.004.138-.176 0-.344-.008-.508-.016h-.01a8.599 8.599 0 00-.403-.014c-.152 0-.233.01-.272.019-.07.118-.152.428-.203.621v.002h-.001c-.117.442-.249.942-.573 1.375-.322.429-.765.703-1.156.945-.182.113-.48.297-.566.4zm10.277 19.483v-9.667a17.534 17.534 0 01-.342-.013c-.146-.007-.283-.014-.407-.014-.195 0-.278.017-.31.028-.13.042-.38.239-.582.398l-.002.001c-.512.404-1.15.906-2.024.906-.874 0-1.512-.502-2.024-.906l-.002-.001c-.202-.159-.452-.356-.582-.399a1.098 1.098 0 00-.31-.028c-.124 0-.261.007-.406.015-.112.005-.226.01-.343.013v9.667l3.083-1.893a1.12 1.12 0 011.168 0l3.082 1.892zm2.195-6.005h5.455v-34.11H25.97c-.606 0-1.098-.48-1.098-1.074V2.148H2.195V45.98h15.43v-4.528c-.326-.434-.463-.948-.578-1.384-.06-.23-.143-.542-.218-.643-.076-.1-.355-.273-.559-.399-.54-.334-1.212-.75-1.48-1.536-.264-.776.011-1.509.232-2.098.1-.267.214-.57.214-.736 0-.165-.114-.468-.214-.736-.221-.59-.496-1.322-.232-2.098.268-.786.94-1.202 1.48-1.536.204-.126.483-.299.559-.4.075-.1.157-.413.218-.642.158-.598.354-1.342 1.027-1.825.535-.383 1.154-.428 1.574-.428.175 0 .343.008.506.016h.009c.145.008.283.015.406.015a1.1 1.1 0 00.31-.028c.13-.042.377-.237.578-.396l.006-.004c.513-.404 1.15-.906 2.024-.906.873 0 1.51.501 2.022.904l.002.002c.202.16.454.357.584.4.032.01.115.028.31.028.124 0 .261-.007.407-.014.165-.009.337-.017.514-.017.42 0 1.04.045 1.575.428.672.483.868 1.227 1.026 1.825.06.23.144.543.219.643.075.1.354.273.558.399.54.334 1.213.75 1.48 1.536.264.776-.011 1.51-.232 2.098-.1.267-.214.57-.214.736 0 .165.114.468.214.736.221.59.496 1.322.232 2.098-.267.786-.94 1.202-1.48 1.536-.205.126-.483.299-.558.4-.075.1-.158.413-.219.642-.115.436-.251.95-.578 1.384z"/><path fill="#86adef" d="M6.075 11h13.85c.593 0 1.075-.448 1.075-1s-.482-1-1.075-1H6.075C5.481 9 5 9.448 5 10s.482 1 1.075 1zm24.844 4H7.08C6.484 15 6 15.448 6 16s.484 1 1.081 1H30.92c.597 0 1.081-.448 1.081-1s-.484-1-1.081-1zm-5.017 5H6.098C5.49 20 5 20.448 5 21s.491 1 1.098 1h19.804C26.51 22 27 21.552 27 21s-.491-1-1.098-1zM31 20c-.55 0-1 .674-1 1.5s.45 1.5 1 1.5c.551 0 1-.674 1-1.5s-.449-1.5-1-1.5z"/></svg>