<svg xmlns="http://www.w3.org/2000/svg" width="8" height="7"><path fill="#53b43b" d="M6.292 1.139L3.028 4.858l-1.32-1.503a.38.38 0 00-.586 0 .52.52 0 000 .669l1.612 1.838A.39.39 0 003.028 6a.39.39 0 00.293-.139h.001l3.556-4.054a.52.52 0 000-.668.38.38 0 00-.586 0z"/><path fill="none" stroke="#53b43b" stroke-miterlimit="20" stroke-width=".5" d="M6.292 1.139v0L3.028 4.858v0l-1.32-1.503a.38.38 0 00-.586 0 .52.52 0 000 .669l1.612 1.838A.39.39 0 003.028 6a.39.39 0 00.293-.139h.001l3.556-4.054a.52.52 0 000-.668.38.38 0 00-.586 0z"/></svg>